<?xml version="1.0"?><svg width="640" height="480" xmlns="http://www.w3.org/2000/svg" xmlns:xlink="http://www.w3.org/1999/xlink">
 <title>BeerMug</title>
 <defs>
  <linearGradient id="linearGradient835">
   <stop stop-color="#ffffff" stop-opacity="0.5" offset="0" id="stop836"/>
   <stop stop-color="#ffffff" stop-opacity="0.1" offset="1" id="stop837"/>
  </linearGradient>
  <linearGradient y2="0.65625" y1="0.117188" xlink:href="#linearGradient835" x2="0.9" x1="0.2125" id="linearGradient838"/>
  <linearGradient y2="1.805556" y1="0.138889" xlink:href="#linearGradient835" x2="0.608696" x1="0.065217" id="linearGradient840"/>
  <linearGradient y2="1.293103" y1="0.077586" xlink:href="#linearGradient835" x2="0.985507" x1="0.155797" id="linearGradient842"/>
 </defs>
 <g>
  <path fill="#ffffff" fill-rule="evenodd" stroke="black" stroke-width="3" stroke-linejoin="round" id="path825" d="m172.294281,120.645752c8.713577,4.508522 82.871658,20.175659 125.862366,19.214935c61.231995,0.960724 112.308044,-22.241287 121.989777,-25.940163c0,5.270859 -8.546814,37.767967 -9.681732,57.644783c0,20.027664 6.777252,104.465698 7.745392,123.936371c3.21521,22.713806 10.018005,50.960052 16.458923,70.134491c6.777161,13.065735 -87.297577,36.227966 -128.766968,38.429871c-46.690674,2.882233 -144.257629,-16.070038 -138.448624,-30.743927c0,-14.589447 13.554443,-49.200928 13.554443,-72.055969c1.936295,-22.150421 -0.968216,-85.561234 -0.968216,-113.368118c-0.968155,-24.924774 -3.903687,-46.177414 -7.745361,-67.252274z"/>
  <path fill="#ffffff" fill-rule="evenodd" stroke="black" stroke-width="3" id="path827" d="m165.517075,377.165131c-20.693832,-4.893616 -29.190842,37.179993 -6.777222,44.194336c23.59053,13.802155 110.046829,25.940155 145.225876,23.057892c41.127716,-0.960693 115.564911,-16.332611 132.639557,-30.743835c22.726318,-14.411224 20.248474,-48.037354 0,-44.194366c-12.146637,13.45047 -98.915405,32.665344 -135.544067,34.586884c-34.169312,2.882233 -113.921631,-9.287231 -135.544144,-26.900909z"/>
  <path fill="#ffffff" fill-rule="evenodd" stroke="#000000" stroke-width="3" stroke-linejoin="bevel" id="path828" d="m412.813354,154.321075c4.611633,-11.805893 35.709991,-25.630356 45.804291,-27.630341c17.364105,-3.86264 45.883087,-5.102295 62.108307,15.73558c29.41333,37.952606 25.053345,105.240326 10.599976,127.34404c-10.285278,18.764282 -34.719849,37.80011 -54.224945,43.667572c-19.081421,5.638489 -47.075958,9.78299 -53.09848,13.64563c-1.299713,-4.765961 -4.916443,-27.161041 -5.116211,-33.349976c7.226685,0.471527 27.74585,-3.281952 43.331879,-6.867615c14.45343,-3.304535 23.895172,-12.037231 34.585388,-22.876587c18.503693,-17.278763 16.093719,-77.790421 1.989838,-92.119034c-8.271393,-8.317902 -25.371643,-14.354416 -36.733185,-12.216995c-18.495514,3.792801 -50.6698,27.079041 -50.6698,25.661377c-1.884674,-7.645157 -0.929016,-22.643524 1.422943,-30.993652z"/>
  <path fill="#ffffff" fill-rule="evenodd" stroke="#000000" stroke-width="3" stroke-linejoin="round" id="path830" d="m244.758331,170.210953c6.132431,4.435822 -5.020889,62.335098 -3.487747,103.422684c1.533066,52.556335 5.347473,86.499329 -1.932571,90.571594c-11.513718,6.155151 -36.681931,-0.499084 -44.627884,-8.899811c-4.717041,-5.539185 6.690399,-37.645966 7.456955,-60.398773c-1.533066,-32.026062 -6.30809,-122.438751 -1.708786,-127.859314c8.344727,-7.550247 35.86795,-4.236984 44.300034,3.16362z"/>
  <path fill="#ffffff" fill-rule="evenodd" stroke="black" stroke-width="3" id="path832" d="m276.58371,172.670898c-5.476807,5.236893 -0.234924,72.150253 -0.234924,82.937347c1.131287,14.001312 -4.079071,100.928101 -0.656067,106.449799c6.845978,7.800964 37.846954,8.977722 48.165314,-1.310455c5.57666,-6.892548 -1.770233,-82.882629 -1.770233,-101.762573c0,-20.259735 5.213409,-81.07309 -1.632599,-86.692047c-7.53064,-7.901962 -31.266449,-11.68959 -43.87149,0.37793z"/>
  <path fill="#ffffff" fill-rule="evenodd" stroke="#000000" stroke-width="3" stroke-linejoin="round" id="path833" d="m349.527557,167.360931c-6.141907,4.618973 4.369659,58.088867 4.423706,99.198853c0.509949,52.572083 -4.609589,90.668884 3.052979,94.51825c12.10733,5.802826 40.312683,-5.66803 48.165436,-14.304535c4.639709,-5.678833 -5.228912,-37.421326 -7.713501,-60.137634c-3.644958,-30.015717 0.546783,-121.796005 -4.40741,-127.074066c-8.897797,-7.293076 -35.127838,0.14743 -43.52121,7.799133z"/>
  <path fill="url(#linearGradient838)" fill-rule="evenodd" stroke-width="3" id="path834" d="m324.635101,143.566528c-18.484253,4.07608 -135.551102,-11.548965 -147.189301,-17.663101c3.423019,16.983734 11.638199,166.440872 6.161377,183.424606c0.684631,7.47287 -14.376617,55.706757 -13.692032,65.897003c63.667908,-251.359688 147.189346,-180.027863 154.719955,-231.658508z"/>
  <path fill="url(#linearGradient840)" fill-rule="evenodd" stroke-width="3" id="path839" d="m163.269318,379.553284c-11.304413,-3.299347 -19.283997,25.07489 -10.639481,33.653168c21.278915,9.897949 49.207504,-8.578278 141.637741,-5.938751c-47.212555,-1.319794 -117.033951,-10.557922 -130.99826,-27.714417z"/>
  <path fill="url(#linearGradient842)" fill-rule="evenodd" stroke-width="3" id="path841" d="m417.286285,152.559525c16.624146,-16.496689 32.583344,-20.455872 51.86734,-23.755188c32.583313,-8.578285 55.192139,13.857147 62.506775,43.551132c-16.624207,-26.394623 -37.903015,-30.353836 -52.532288,-31.013672c-15.29422,2.639435 -58.517029,29.034073 -62.506744,33.653137c-3.989838,4.61908 -2.659912,-15.17691 0.664917,-22.43541z"/>
  <path fill="#ffffff" fill-rule="evenodd" stroke="black" stroke-width="3" stroke-linejoin="round" id="path844" d="m168.386246,313.489838c8.829407,4.260986 15.860855,-5.769379 12.837173,-11.140808c3.390045,0.318268 6.649628,-1.19632 6.649628,-6.598694c2.669159,-2.648621 -1.35083,-6.817444 -1.35083,-10.057739c-3.680908,-3.65274 0.020905,-7.959656 0.020905,-13.697418c0,-5.711334 3.32486,-9.200134 3.32486,-15.17691c0,-8.680573 7.6297,-4.340897 3.324799,-17.156494c4.031586,-1.560852 8.425385,-5.457825 3.324814,-9.897995c8.002975,-0.880569 11.924469,-8.65506 1.994919,-17.156494c15.091583,0 -15.672394,-32.097321 9.974487,-25.734787c8.232422,-2.042282 6.649643,-8.143555 6.649643,-15.836761c10.639496,14.517044 25.546661,9.636978 27.928574,0c4.996353,16.175751 39.233002,9.510666 39.233002,-10.557846c0.664978,24.816833 26.370117,12.516998 31.253357,14.517044c-5.98465,6.860855 5.868744,33.380783 15.959229,33.653152c-23.376556,17.397934 -19.164948,47.797928 9.30954,53.449112c14.426025,0 19.948914,-12.05336 19.948914,-29.034088c4.654785,9.723221 25.830353,15.734207 25.933716,-0.659866c10.639435,20.384323 24.06662,-5.405746 15.959167,-7.918411c18.619049,7.006165 11.450592,-26.024857 4.654755,-33.653152c10.639496,-3.362015 7.24942,-27.649597 0.664948,-35.632751c9.711273,9.798325 24.965179,-3.055527 23.273804,-21.775528c4.549438,12.746445 33.890289,-1.353973 13.964294,-31.013718c0,-5.680603 -16.624115,-6.429459 -20.613922,-1.979584c-0.057098,-20.022537 -15.188965,-35.632744 -25.933685,-31.673561c6.664978,-9.897987 -33.521851,-18.010571 -41.892822,-1.979599c5.00354,-20.958817 -51.166229,-34.313 -52.532318,-22.435432c-6.47699,-9.238125 -43.609528,-9.406471 -54.527222,23.095284c0,-17.869751 -60.421143,-25.734756 -59.181946,1.319748c-12.929688,-8.945045 -34.186203,1.31974 -32.583298,11.877602c-19.949005,-9.938896 -29.053741,35.15097 -12.634369,37.612328c-9.30954,8.317612 -9.974518,41.584373 1.994888,40.91169c-7.314636,7.829773 -3.324814,31.016708 4.65477,31.673523c-6.222061,8.531448 0.910278,50.271561 26.598618,43.551163c0,9.277344 2.6259,17.257599 -0.664948,27.054504c0,5.681793 -3.324829,10.488342 -3.324829,16.496674c1.378433,2.735657 -4.667084,10.016235 1.994888,14.516968c-15.622437,6.467957 -12.234894,16.412506 -6.1875,21.038849z"/>
  <path fill="none" fill-rule="evenodd" stroke="black" stroke-width="3" stroke-linejoin="round" fill-opacity="0.75" id="path846" d="m168.048279,148.909302c-5.592209,-6.063904 4.524948,-25.880653 15.718842,-24.860916c2.551208,-9.09584 9.580612,-10.63488 17.366608,-8.042236c-3.88147,-7.518097 5.568817,-14.675362 13.89328,-6.183037c5.62059,-9.639046 17.329666,-17.077652 23.549377,-11.879814c-0.4888,-12.400764 22.463654,-24.976479 30.865936,-14.106163c0,2.227936 -1.343628,6.893364 0,6.893364"/>
  <path fill="none" fill-rule="evenodd" stroke="black" stroke-width="3" stroke-linejoin="round" fill-opacity="0.75" id="path847" d="m305.333252,111.410568c-0.384583,-17.356293 51.902985,-31.583168 41.67984,-1.148895c4.702271,-2.333115 25.471008,-4.775787 21.651764,8.504654c15.276886,-1.7117 38.494812,4.061523 24.683136,24.589157c8.876678,6.638474 4.928986,24.617233 -1.181763,18.606384"/>
  <title>Layer 1</title>
 </g>
</svg>